<svg id="Layer_2"
    xmlns="http://www.w3.org/2000/svg" viewBox="0 0 419.6 512" class="icon lpanel">
    <g id="Layer_1-2">
        <path d="M324.4 0H95.3C42.8 0 0 44.9 0 100v312c0 55.1 42.7 100 95.2 100h229.1c52.5 0 95.2-44.9 95.2-100V100c0-55.1-42.7-100-95.2-100zm57.1 412c0 33.1-25.6 60-57.1 60H95.3c-31.5 0-57.1-26.9-57.1-60V206.5h343.4V412zm0-245.5H38.2V100c0-33.1 25.6-60 57.1-60h229.1c31.5 0 57.1 26.9 57.1 60v66.5z"></path>
        <path d="M289.7 400.1c0 13-10 23.5-22.4 23.5s-22.4-10.5-22.4-23.5 10-23.5 22.4-23.5 22.4 10.5 22.4 23.5zM174.6 400.1c0 13-10 23.5-22.4 23.5s-22.4-10.5-22.4-23.5 10-23.5 22.4-23.5 22.4 10.5 22.4 23.5zM174.6 290.2c0 13-10 23.5-22.4 23.5s-22.4-10.5-22.4-23.5 10-23.5 22.4-23.5 22.4 10.5 22.4 23.5zM289.7 290.2c0 13-10 23.5-22.4 23.5s-22.4-10.5-22.4-23.5 10-23.5 22.4-23.5 22.4 10.5 22.4 23.5z"></path>
    </g>
</svg>