<svg id="Layer_2" xmlns="http://www.w3.org/2000/svg" viewBox="0 0 417.4 512" class="icon lpanel"><g id="Layer_1-2"><path d="M161.4 330.1h-47.1c-11 0-20 9-20 20s9 20 20 20h47.1c11 0 20-9 20-20s-9-20-20-20z"></path><path d="M394.2 129.9L287.5 23.3C272.5 8.2 252.6 0 231.4 0H100C44.9 0 0 44.9 0 100v312c0 55.1 44.9 100 100 100h217.4c55.1 0 100-44.9 100-100V186c0-21.2-8.3-41.1-23.2-56.1zm-28.3 28.3c2.3 2.3 4.3 4.9 6 7.6H305c-25.6 0-46.4-20.8-46.4-46.4V51l.6.6 106.7 106.6zm-48.5 313.9H100c-33.1 0-60-26.9-60-60V100c0-33.1 26.9-60 60-60h118.6v79.4c0 47.6 38.7 86.4 86.4 86.4h72.4V412c0 33.1-26.9 60-60 60z"></path></g></svg>