<svg xmlns="http://www.w3.org/2000/svg" viewBox="0 0 16 16" class="icon align-text-top unified-icon-fill "><path d="M14.44 8.73l-1.29-1.29a.51.51 0 01-.15-.35V5c0-2.76-2.24-5-5-5S3 2.24 3 5v2.09c0 .13-.05.26-.15.35L1.56 8.73c-.36.36-.56.84-.56 1.35v.41c0 .83.67 1.5 1.5 1.5h11c.83 0 1.5-.67 1.5-1.5v-.41c0-.51-.2-.99-.56-1.35zM14 10.5c0 .28-.22.5-.5.5h-11c-.28 0-.5-.22-.5-.5v-.41c0-.25.09-.47.27-.65l1.29-1.29c.28-.28.44-.67.44-1.06V5c0-2.21 1.79-4 4-4s4 1.79 4 4v2.09c0 .39.16.78.44 1.06l1.29 1.29c.17.17.27.4.27.65v.41zM10 13c-.28 0-.5.22-.5.5 0 .83-.67 1.5-1.5 1.5s-1.5-.67-1.5-1.5c0-.28-.22-.5-.5-.5s-.5.22-.5.5a2.5 2.5 0 005 0c0-.28-.22-.5-.5-.5z"></path></svg>