<svg id="Layer_2"
    xmlns="http://www.w3.org/2000/svg" viewBox="0 0 512 509.5" class="icon lpanel">
    <g id="Layer_1-2">
        <path d="M80 414.5c8.8-6.7 10.5-19.2 3.8-28-31.3-41.2-46.7-92.5-43.4-144.4 3.4-52.4 25.7-101.7 62.8-138.9C144 62.4 198.2 40 255.9 40c57.7 0 111.9 22.5 152.7 63.3 37.2 37.2 59.5 86.5 62.8 138.9 3.3 51.9-12.1 103.2-43.4 144.4-6.7 8.8-5 21.3 3.8 28 3.6 2.8 7.9 4.1 12.1 4.1 6 0 12-2.7 15.9-7.9 37.1-48.8 55.4-109.6 51.5-171.1-4-62.1-30.4-120.6-74.4-164.6C388.7 26.6 324.4 0 256 0S123.3 26.6 75 75C31 119 4.5 177.5.5 239.5-3.4 301 14.8 361.8 52 410.6c6.7 8.8 19.2 10.5 28 3.8zM480.9 469.5H31.1c-11 0-20 9-20 20s9 20 20 20h449.8c11 0 20-9 20-20s-9-20-20-20z"></path>
        <path d="M259.7 110.3c-11 0-20 9-20 20v201.9l-56.9-56.9c-7.8-7.8-20.5-7.8-28.3 0s-7.8 20.5 0 28.3l91.1 91.1c3.9 3.9 9 5.9 14.1 5.9s10.2-2 14.1-5.9l91.1-91.1c7.8-7.8 7.8-20.5 0-28.3s-20.5-7.8-28.3 0l-56.9 56.9V130.3c0-11-9-20-20-20z"></path>
    </g>
</svg>