<svg xmlns="http://www.w3.org/2000/svg" viewBox="0 0 512 512" class="icon icon-sm align-middle" style="color: #188dfa"><path d="M256 15C122.9 15 15 122.9 15 256s107.9 241 241 241 241-107.9 241-241S389.1 15 256 15zm122 263H278v100c0 12.2-9.8 22-22 22s-22-9.8-22-22V278H134c-12.2 0-22-9.8-22-22s9.8-22 22-22h100V134c0-12.2 9.8-22 22-22s22 9.8 22 22v100h100c12.2 0 22 9.8 22 22s-9.8 22-22 22z"></path><path fill="#FFF" d="M378 234H278V134c0-12.2-9.8-22-22-22s-22 9.8-22 22v100H134c-12.2 0-22 9.8-22 22s9.8 22 22 22h100v100c0 12.2 9.8 22 22 22s22-9.8 22-22V278h100c12.2 0 22-9.8 22-22s-9.8-22-22-22z"></path></svg>