<svg xmlns="http://www.w3.org/2000/svg" viewBox="0 0 16 16" class="icon cursor-pointer align-text-top unified-icon-fill"><path d="M8 5C6.35 5 5 6.35 5 8s1.35 3 3 3 3-1.35 3-3-1.35-3-3-3zm0 5c-1.1 0-2-.9-2-2s.9-2 2-2 2 .9 2 2-.9 2-2 2z"></path><path d="M13.99 8.28v-.56l1.15-1.3c.43-.48.5-1.18.18-1.75l-.78-1.35c-.32-.56-.96-.85-1.6-.72l-1.7.35c-.16-.1-.32-.19-.49-.28l-.55-1.65C10 .41 9.43 0 8.78 0H7.22C6.57 0 6 .41 5.8 1.03l-.55 1.65c-.17.09-.33.18-.49.28l-1.7-.35c-.63-.13-1.28.16-1.6.72L.68 4.68c-.32.56-.25 1.26.18 1.75l1.15 1.3v.56L.86 9.59c-.43.48-.5 1.19-.18 1.75l.78 1.35c.32.56.97.85 1.6.72l1.7-.35c.16.1.32.19.49.28l.55 1.65c.21.61.78 1.02 1.42 1.02h1.56c.65 0 1.22-.41 1.42-1.03l.55-1.65c.17-.09.33-.18.49-.28l1.7.35c.63.13 1.27-.16 1.6-.72l.78-1.35c.32-.56.25-1.26-.18-1.75l-1.15-1.3zm.46 2.54l-.78 1.35c-.11.19-.32.28-.53.24l-1.9-.39c-.13-.03-.27 0-.39.08-.22.15-.46.29-.72.41-.12.06-.22.16-.26.29l-.62 1.85c-.07.21-.26.34-.47.34H7.22c-.22 0-.41-.14-.47-.34l-.62-1.85a.469.469 0 00-.26-.29c-.26-.12-.5-.26-.72-.41a.476.476 0 00-.29-.09h-.1l-1.9.39a.484.484 0 01-.53-.24l-.78-1.35a.497.497 0 01.06-.58L2.9 8.77c.09-.1.13-.24.12-.37-.01-.14-.02-.28-.02-.42s0-.28.02-.42a.49.49 0 00-.12-.37L1.61 5.74a.499.499 0 01-.06-.58l.78-1.35c.11-.19.32-.28.53-.24l1.9.39c.13.03.27 0 .39-.08.22-.15.46-.29.72-.41.12-.06.22-.16.26-.29l.62-1.85c.07-.2.26-.34.47-.34h1.56c.22 0 .41.14.47.34l.62 1.85c.04.13.14.24.26.29.26.12.5.26.72.41.11.08.25.11.39.08l1.9-.39c.21-.04.42.05.53.24l.78 1.35c.11.19.08.42-.06.58L13.1 7.2c-.09.1-.14.24-.12.37s.02.28.02.42 0 .28-.02.41.03.27.12.37l1.29 1.46c.14.16.17.4.06.58z"></path></svg>