<svg id="Layer_2" xmlns="http://www.w3.org/2000/svg" viewBox="0 0 431.2 512" class="icon lpanel"><g id="Layer_1-2"><path d="M215.6 227.8c-62.8 0-113.9-51.1-113.9-113.9S152.8 0 215.6 0s113.9 51.1 113.9 113.9-51.1 113.9-113.9 113.9zm0-187.8c-40.8 0-73.9 33.2-73.9 73.9s33.2 73.9 73.9 73.9 73.9-33.2 73.9-73.9S256.3 40 215.6 40zM358 512H73.2c-23.1 0-44.3-10.5-58.3-28.9s-18.4-41.7-12.2-63.9l14.5-51.9c7.4-26.6 23-49.5 44.9-66.1s48.2-25.5 75.8-25.5h155.3c27.6 0 53.8 8.8 75.8 25.5s37.5 39.6 44.9 66.1l14.5 51.9c6.2 22.2 1.8 45.5-12.2 63.9S381 512 357.9 512zM138 315.6c-38.1 0-71.9 25.7-82.2 62.4l-14.5 51.9c-2.8 10.1-.8 20.6 5.5 29 6.3 8.3 16 13.1 26.4 13.1h284.7c10.5 0 20.1-4.8 26.4-13.1 6.3-8.3 8.3-18.9 5.5-29L375.3 378c-10.2-36.7-44-62.4-82.2-62.4H137.8z"></path><path d="M310 421.8h-2c-.6 0-1.3-.2-1.9-.3-.6-.1-1.3-.3-1.9-.5-.6-.2-1.2-.4-1.8-.7-.6-.2-1.2-.5-1.8-.8-.6-.3-1.1-.6-1.7-1-.5-.4-1.1-.8-1.6-1.2-.5-.4-1-.9-1.5-1.3-.5-.5-.9-1-1.3-1.5s-.8-1-1.2-1.6c-.4-.5-.7-1.1-1-1.7-.3-.6-.6-1.2-.8-1.8-.2-.6-.5-1.2-.7-1.8-.2-.6-.4-1.3-.5-1.9-.1-.6-.2-1.3-.3-1.9v-2-2c0-.6.2-1.3.3-1.9.1-.6.3-1.3.5-1.9.2-.6.4-1.2.7-1.8.2-.6.5-1.2.8-1.8.3-.6.6-1.1 1-1.7.4-.5.8-1.1 1.2-1.6.4-.5.9-1 1.3-1.5.5-.5 1-.9 1.5-1.3s1-.8 1.6-1.2c.5-.4 1.1-.7 1.7-1 .6-.3 1.2-.6 1.8-.8.6-.2 1.2-.5 1.8-.7.6-.2 1.3-.4 1.9-.5.6-.1 1.3-.2 1.9-.3 1.3-.1 2.6-.1 3.9 0 .6 0 1.3.2 1.9.3.6.1 1.3.3 1.9.5.6.2 1.2.4 1.8.7.6.2 1.2.5 1.8.8.6.3 1.1.6 1.7 1 .5.4 1.1.8 1.6 1.2.5.4 1 .9 1.5 1.3.5.5.9 1 1.3 1.5s.8 1 1.2 1.6c.4.5.7 1.1 1 1.7.3.6.6 1.2.8 1.8.2.6.5 1.2.7 1.8.2.6.4 1.3.5 1.9.1.6.2 1.3.3 1.9v4c0 .6-.2 1.3-.3 1.9-.1.6-.3 1.3-.5 1.9-.2.6-.4 1.2-.7 1.8-.2.6-.5 1.2-.8 1.8-.3.6-.6 1.1-1 1.7-.4.5-.8 1.1-1.2 1.6-.4.5-.9 1-1.3 1.5-.5.5-1 .9-1.5 1.3s-1 .8-1.6 1.2c-.5.4-1.1.7-1.7 1-.6.3-1.2.6-1.8.8-.6.2-1.2.5-1.8.7-.6.2-1.3.4-1.9.5-.6.1-1.3.2-1.9.3h-2z"></path></g></svg>